{
  "accessors": [
    {
      "bufferView": 1,
      "componentType": 5126,
      "count": 65533,
      "max": [
        16.529619216918945,
        12.22284984588623,
        16.532869338989258
      ],
      "min": [
        -1.7555299997329712,
        -6.090859889984131,
        -7.008130073547363
      ],
      "type": "VEC3"
    },
    {
      "bufferView": 1,
      "byteOffset": 786396,
      "componentType": 5126,
      "count": 65533,
      "max": [
        0.9999960064888,
        0.9999839663505554,
        1.0
      ],
      "min": [
        -0.9999836087226868,
        -0.9999960064888,
        -1.0
      ],
      "type": "VEC3"
    },
    {
      "bufferView": 0,
      "componentType": 5125,
      "count": 179910,
      "type": "SCALAR"
    },
    {
      "bufferView": 1,
      "byteOffset": 1572792,
      "componentType": 5126,
      "count": 31409,
      "max": [
        14.185420036315918,
        9.904930114746094,
        15.029919624328613
      ],
      "min": [
        0.5623800158500671,
        -5.01540994644165,
        -7.008130073547363
      ],
      "type": "VEC3"
    },
    {
      "bufferView": 1,
      "byteOffset": 1949700,
      "componentType": 5126,
      "count": 31409,
      "max": [
        0.9992711544036865,
        0.9992711544036865,
        1.0
      ],
      "min": [
        -0.9992711544036865,
        -0.9992711544036865,
        -1.0
      ],
      "type": "VEC3"
    },
    {
      "bufferView": 0,
      "byteOffset": 719640,
      "componentType": 5125,
      "count": 85635,
      "type": "SCALAR"
    },
    {
      "bufferView": 1,
      "byteOffset": 2326608,
      "componentType": 5126,
      "count": 49920,
      "max": [
        15.720000267028809,
        11.34613037109375,
        1.0200999975204468
      ],
      "min": [
        -0.8830299973487854,
        -5.228340148925781,
        -1.7460700273513794
      ],
      "type": "VEC3"
    },
    {
      "bufferView": 1,
      "byteOffset": 2925648,
      "componentType": 5126,
      "count": 49920,
      "max": [
        0.9968006014823914,
        0.9968013167381287,
        0.9913424849510193
      ],
      "min": [
        -0.9968010783195496,
        -0.9968013167381287,
        -0.9873063564300537
      ],
      "type": "VEC3"
    },
    {
      "bufferView": 0,
      "byteOffset": 1062180,
      "componentType": 5125,
      "count": 74880,
      "type": "SCALAR"
    },
    {
      "bufferView": 1,
      "byteOffset": 3524688,
      "componentType": 5126,
      "count": 24,
      "max": [
        1.0,
        1.0,
        1.0
      ],
      "min": [
        -1.0,
        -1.0,
        -1.0
      ],
      "type": "VEC3"
    },
    {
      "bufferView": 1,
      "byteOffset": 3524976,
      "componentType": 5126,
      "count": 24,
      "max": [
        1.0,
        1.0,
        1.0
      ],
      "min": [
        -1.0,
        -1.0,
        -1.0
      ],
      "type": "VEC3"
    },
    {
      "bufferView": 0,
      "byteOffset": 1361700,
      "componentType": 5125,
      "count": 36,
      "type": "SCALAR"
    }
  ],
  "asset": {
    "extras": {
      "author": "Dolores (https://sketchfab.com/upto21)",
      "license": "CC-BY-4.0 (http://creativecommons.org/licenses/by/4.0/)",
      "source": "https://sketchfab.com/3d-models/charminar-hyderabad-82603f1fe3ed4c31b37786e2bc2b63b0",
      "title": "Charminar, Hyderabad"
    },
    "generator": "Sketchfab-12.66.0",
    "version": "2.0"
  },
  "bufferViews": [
    {
      "buffer": 0,
      "byteLength": 1361844,
      "name": "floatBufferViews",
      "target": 34963
    },
    {
      "buffer": 0,
      "byteLength": 3525264,
      "byteOffset": 1361844,
      "byteStride": 12,
      "name": "floatBufferViews",
      "target": 34962
    }
  ],
  "buffers": [
    {
      "byteLength": 4887108,
      "uri": "scene.bin"
    }
  ],
  "materials": [
    {
      "doubleSided": true,
      "name": "Material.001",
      "pbrMetallicRoughness": {
        "baseColorFactor": [
          0.09083746373653412,
          0.07533194124698639,
          0.06265091896057129,
          1.0
        ],
        "metallicFactor": 0.0,
        "roughnessFactor": 0.6
      }
    },
    {
      "doubleSided": true,
      "name": "Material",
      "pbrMetallicRoughness": {
        "baseColorFactor": [
          0.6981914639472961,
          0.6124303936958313,
          0.3934406638145447,
          1.0
        ],
        "metallicFactor": 0.0
      }
    }
  ],
  "meshes": [
    {
      "name": "Circle.003_0",
      "primitives": [
        {
          "attributes": {
            "NORMAL": 1,
            "POSITION": 0
          },
          "indices": 2,
          "material": 1,
          "mode": 4
        }
      ]
    },
    {
      "name": "Circle.003_0",
      "primitives": [
        {
          "attributes": {
            "NORMAL": 4,
            "POSITION": 3
          },
          "indices": 5,
          "material": 1,
          "mode": 4
        }
      ]
    },
    {
      "name": "Circle.006_0",
      "primitives": [
        {
          "attributes": {
            "NORMAL": 7,
            "POSITION": 6
          },
          "indices": 8,
          "material": 1,
          "mode": 4
        }
      ]
    },
    {
      "name": "Cube_0",
      "primitives": [
        {
          "attributes": {
            "NORMAL": 10,
            "POSITION": 9
          },
          "indices": 11,
          "material": 0,
          "mode": 4
        }
      ]
    }
  ],
  "nodes": [
    {
      "children": [
        1
      ],
      "matrix": [
        1.0,
        0.0,
        0.0,
        0.0,
        0.0,
        2.220446049250313e-16,
        -1.0,
        0.0,
        0.0,
        1.0,
        2.220446049250313e-16,
        0.0,
        0.0,
        0.0,
        0.0,
        1.0
      ],
      "name": "Sketchfab_model"
    },
    {
      "children": [
        2,
        4,
        7,
        9
      ],
      "name": "Root"
    },
    {
      "children": [
        3
      ],
      "matrix": [
        -0.29086000000000006,
        0.9551700000000001,
        -0.05519000000000001,
        0.0,
        -0.7711,
        -0.19988000000000003,
        0.6045200000000001,
        0.0,
        0.5663900000000001,
        0.21839000000000003,
        0.7946700000000001,
        0.0,
        4.076250000000001,
        1.00545,
        5.903860000000001,
        1.0
      ],
      "name": "Lamp"
    },
    {
      "name": "Lamp"
    },
    {
      "children": [
        5,
        6
      ],
      "matrix": [
        0.06349000000000002,
        -0.15344000000000005,
        0.0,
        0.0,
        0.15344000000000005,
        0.06349000000000002,
        0.0,
        0.0,
        0.0,
        0.0,
        0.16606000000000004,
        0.0,
        -0.9652400000000001,
        2.74687,
        1.2517699999999998,
        1.0
      ],
      "name": "Circle.003"
    },
    {
      "mesh": 0,
      "name": "Circle.003_0"
    },
    {
      "mesh": 1,
      "name": "Circle.003_0"
    },
    {
      "children": [
        8
      ],
      "matrix": [
        -0.15344000000000005,
        -0.06349000000000002,
        0.0,
        0.0,
        0.06349000000000002,
        -0.15344000000000005,
        0.0,
        0.0,
        0.0,
        0.0,
        0.16606000000000004,
        0.0,
        0.91828,
        2.7483800000000005,
        3.8084499999999997,
        1.0
      ],
      "name": "Circle.006"
    },
    {
      "mesh": 2,
      "name": "Circle.006_0"
    },
    {
      "children": [
        10
      ],
      "matrix": [
        1.64272,
        0.0,
        0.0,
        0.0,
        0.0,
        1.64272,
        0.0,
        0.0,
        0.0,
        0.0,
        0.32693000000000005,
        0.0,
        -0.04697000000000001,
        1.83131,
        -0.24172000000000002,
        1.0
      ],
      "name": "Cube"
    },
    {
      "mesh": 3,
      "name": "Cube_0"
    }
  ],
  "scene": 0,
  "scenes": [
    {
      "name": "Sketchfab_Scene",
      "nodes": [
        0
      ]
    }
  ]
}
