{
  "accessors": [
    {
      "bufferView": 2,
      "componentType": 5126,
      "count": 4345,
      "max": [
        0.10147599875926971,
        0.10073000192642212,
        0.20853999257087708
      ],
      "min": [
        -0.10121399909257889,
        -0.10188300162553787,
        0.11800000071525574
      ],
      "type": "VEC3"
    },
    {
      "bufferView": 2,
      "byteOffset": 52140,
      "componentType": 5126,
      "count": 4345,
      "max": [
        0.9999979734420776,
        0.999923825263977,
        0.9503595232963562
      ],
      "min": [
        -0.9999682903289795,
        -0.999866247177124,
        -0.94228196144104
      ],
      "type": "VEC3"
    },
    {
      "bufferView": 1,
      "componentType": 5126,
      "count": 4345,
      "max": [
        0.964838981628418,
        0.9950209856033325
      ],
      "min": [
        0.004222999792546034,
        0.1277559995651245
      ],
      "type": "VEC2"
    },
    {
      "bufferView": 0,
      "componentType": 5125,
      "count": 21180,
      "type": "SCALAR"
    },
    {
      "bufferView": 2,
      "byteOffset": 104280,
      "componentType": 5126,
      "count": 65532,
      "max": [
        0.10093999654054642,
        0.09905999898910522,
        0.28310999274253845
      ],
      "min": [
        -0.10193900018930435,
        -0.11778099834918976,
        0.0001720000000204891
      ],
      "type": "VEC3"
    },
    {
      "bufferView": 2,
      "byteOffset": 890664,
      "componentType": 5126,
      "count": 65532,
      "max": [
        0.9999686479568481,
        0.9999872446060181,
        0.9999963045120239
      ],
      "min": [
        -0.9999915361404419,
        -0.9999949932098389,
        -0.9999911785125732
      ],
      "type": "VEC3"
    },
    {
      "bufferView": 3,
      "componentType": 5126,
      "count": 65532,
      "max": [
        0.9999874234199524,
        0.9999968409538269,
        0.9999955296516418,
        1.0
      ],
      "min": [
        -0.9999730587005615,
        -0.9999687671661377,
        -0.9999989867210388,
        -1.0
      ],
      "type": "VEC4"
    },
    {
      "bufferView": 1,
      "byteOffset": 34760,
      "componentType": 5126,
      "count": 65532,
      "max": [
        0.9992870092391968,
        0.9998779892921448
      ],
      "min": [
        0.0003279999946244061,
        0.0003279999946244061
      ],
      "type": "VEC2"
    },
    {
      "bufferView": 0,
      "byteOffset": 84720,
      "componentType": 5125,
      "count": 328305,
      "type": "SCALAR"
    },
    {
      "bufferView": 2,
      "byteOffset": 1677048,
      "componentType": 5126,
      "count": 65532,
      "max": [
        0.06232399865984917,
        0.10214400291442871,
        0.2784140110015869
      ],
      "min": [
        -0.09932299703359604,
        -0.11191699653863907,
        0.010735999792814255
      ],
      "type": "VEC3"
    },
    {
      "bufferView": 2,
      "byteOffset": 2463432,
      "componentType": 5126,
      "count": 65532,
      "max": [
        1.0,
        0.9999935626983643,
        0.9999959468841553
      ],
      "min": [
        -0.9999954700469971,
        -0.9999957084655762,
        -0.999988317489624
      ],
      "type": "VEC3"
    },
    {
      "bufferView": 3,
      "byteOffset": 1048512,
      "componentType": 5126,
      "count": 65532,
      "max": [
        0.9999969601631165,
        0.9999908208847046,
        0.9999985098838806,
        1.0
      ],
      "min": [
        -0.999952495098114,
        -0.9999933242797852,
        -0.9999991059303284,
        -1.0
      ],
      "type": "VEC4"
    },
    {
      "bufferView": 1,
      "byteOffset": 559016,
      "componentType": 5126,
      "count": 65532,
      "max": [
        0.9990820288658142,
        0.9998469948768616
      ],
      "min": [
        0.00012199999764561653,
        0.00012199999764561653
      ],
      "type": "VEC2"
    },
    {
      "bufferView": 0,
      "byteOffset": 1397940,
      "componentType": 5125,
      "count": 332490,
      "type": "SCALAR"
    },
    {
      "bufferView": 2,
      "byteOffset": 3249816,
      "componentType": 5126,
      "count": 65532,
      "max": [
        0.10263500362634659,
        0.09166499972343445,
        0.27888399362564087
      ],
      "min": [
        -0.05447100102901459,
        -0.061792999505996704,
        -0.03483700007200241
      ],
      "type": "VEC3"
    },
    {
      "bufferView": 2,
      "byteOffset": 4036200,
      "componentType": 5126,
      "count": 65532,
      "max": [
        0.9999969005584717,
        0.9999934434890747,
        0.9999991655349731
      ],
      "min": [
        -0.9999945163726807,
        -0.9999879598617554,
        -0.9999984502792358
      ],
      "type": "VEC3"
    },
    {
      "bufferView": 3,
      "byteOffset": 2097024,
      "componentType": 5126,
      "count": 65532,
      "max": [
        0.9999634623527527,
        0.9999792575836182,
        1.0,
        1.0
      ],
      "min": [
        -0.9999703168869019,
        -0.9999911189079285,
        -0.9999944567680359,
        -1.0
      ],
      "type": "VEC4"
    },
    {
      "bufferView": 1,
      "byteOffset": 1083272,
      "componentType": 5126,
      "count": 65532,
      "max": [
        0.9997609853744507,
        0.9984220266342163
      ],
      "min": [
        0.00012199999764561653,
        0.00012199999764561653
      ],
      "type": "VEC2"
    },
    {
      "bufferView": 0,
      "byteOffset": 2727900,
      "componentType": 5125,
      "count": 315450,
      "type": "SCALAR"
    },
    {
      "bufferView": 2,
      "byteOffset": 4822584,
      "componentType": 5126,
      "count": 65533,
      "max": [
        0.09803099930286407,
        0.1175910010933876,
        0.3079119920730591
      ],
      "min": [
        -0.12415000051259995,
        -0.07461400330066681,
        -0.033608999103307724
      ],
      "type": "VEC3"
    },
    {
      "bufferView": 2,
      "byteOffset": 5608980,
      "componentType": 5126,
      "count": 65533,
      "max": [
        0.9999979734420776,
        0.9999920129776001,
        0.9999897480010986
      ],
      "min": [
        -0.9999945163726807,
        -0.9999973773956299,
        -0.9999970197677612
      ],
      "type": "VEC3"
    },
    {
      "bufferView": 3,
      "byteOffset": 3145536,
      "componentType": 5126,
      "count": 65533,
      "max": [
        0.9999876022338867,
        0.9999968409538269,
        0.9999924302101135,
        1.0
      ],
      "min": [
        -0.9999974966049194,
        -0.9999852180480957,
        -0.9999933838844299,
        -1.0
      ],
      "type": "VEC4"
    },
    {
      "bufferView": 1,
      "byteOffset": 1607528,
      "componentType": 5126,
      "count": 65533,
      "max": [
        0.9987729787826538,
        0.9995099902153015
      ],
      "min": [
        0.00012199999764561653,
        0.00012199999764561653
      ],
      "type": "VEC2"
    },
    {
      "bufferView": 0,
      "byteOffset": 3989700,
      "componentType": 5125,
      "count": 318702,
      "type": "SCALAR"
    },
    {
      "bufferView": 2,
      "byteOffset": 6395376,
      "componentType": 5126,
      "count": 45722,
      "max": [
        0.12224099785089493,
        0.07227999716997147,
        0.30731400847435
      ],
      "min": [
        -0.07679899781942368,
        -0.08485899865627289,
        -0.014220000244677067
      ],
      "type": "VEC3"
    },
    {
      "bufferView": 2,
      "byteOffset": 6944040,
      "componentType": 5126,
      "count": 45722,
      "max": [
        0.9999979734420776,
        0.9999765157699585,
        0.9999953508377075
      ],
      "min": [
        -0.99998939037323,
        -0.9999973773956299,
        -0.9999388456344604
      ],
      "type": "VEC3"
    },
    {
      "bufferView": 3,
      "byteOffset": 4194064,
      "componentType": 5126,
      "count": 45722,
      "max": [
        0.9999859929084778,
        0.999993622303009,
        0.9999906420707703,
        1.0
      ],
      "min": [
        -0.9998295903205872,
        -0.9999880790710449,
        -0.9999825954437256,
        -1.0
      ],
      "type": "VEC4"
    },
    {
      "bufferView": 1,
      "byteOffset": 2131792,
      "componentType": 5126,
      "count": 45722,
      "max": [
        0.9991919994354248,
        0.9996970295906067
      ],
      "min": [
        0.00012199999764561653,
        0.00012199999764561653
      ],
      "type": "VEC2"
    },
    {
      "bufferView": 0,
      "byteOffset": 5264508,
      "componentType": 5125,
      "count": 204156,
      "type": "SCALAR"
    }
  ],
  "asset": {
    "extras": {
      "author": "Cleveland Museum of Art (https://sketchfab.com/clevelandart)",
      "license": "CC0-1.0 (http://creativecommons.org/publicdomain/zero/1.0/)",
      "source": "https://sketchfab.com/3d-models/1924859-table-fountain-c03c9b6836aa42328803baeef085be40",
      "title": "1924.859 Table Fountain"
    },
    "generator": "Sketchfab-13.64.0",
    "version": "2.0"
  },
  "bufferViews": [
    {
      "buffer": 0,
      "byteLength": 6081132,
      "name": "floatBufferViews",
      "target": 34963
    },
    {
      "buffer": 0,
      "byteLength": 2497568,
      "byteOffset": 6081132,
      "byteStride": 8,
      "name": "floatBufferViews",
      "target": 34962
    },
    {
      "buffer": 0,
      "byteLength": 7492704,
      "byteOffset": 8578700,
      "byteStride": 12,
      "name": "floatBufferViews",
      "target": 34962
    },
    {
      "buffer": 0,
      "byteLength": 4925616,
      "byteOffset": 16071404,
      "byteStride": 16,
      "name": "floatBufferViews",
      "target": 34962
    }
  ],
  "buffers": [
    {
      "byteLength": 20997020,
      "uri": "scene.bin"
    }
  ],
  "extensionsUsed": [
    "KHR_materials_transmission"
  ],
  "images": [
    {
      "uri": "textures/Enamel_Mats_baseColor.jpeg"
    },
    {
      "uri": "textures/Enamel_Mats_emissive.jpeg"
    },
    {
      "uri": "textures/Fountain_Mats_baseColor.png"
    },
    {
      "uri": "textures/Fountain_Mats_metallicRoughness.png"
    },
    {
      "uri": "textures/Fountain_Mats_normal.jpeg"
    },
    {
      "uri": "textures/Fountain_Mats_transmission.png"
    }
  ],
  "materials": [
    {
      "emissiveFactor": [
        1.0,
        1.0,
        1.0
      ],
      "emissiveTexture": {
        "index": 1
      },
      "name": "Enamel_Mats",
      "pbrMetallicRoughness": {
        "baseColorTexture": {
          "index": 0
        },
        "metallicFactor": 0.0,
        "roughnessFactor": 0.37980763370000004
      }
    },
    {
      "alphaMode": "BLEND",
      "doubleSided": true,
      "extensions": {
        "KHR_materials_transmission": {
          "transmissionFactor": 1.0,
          "transmissionTexture": {
            "index": 5
          }
        }
      },
      "name": "Fountain_Mats",
      "normalTexture": {
        "index": 4
      },
      "pbrMetallicRoughness": {
        "baseColorTexture": {
          "index": 2
        },
        "metallicRoughnessTexture": {
          "index": 3
        }
      }
    }
  ],
  "meshes": [
    {
      "name": "Object_0",
      "primitives": [
        {
          "attributes": {
            "NORMAL": 1,
            "POSITION": 0,
            "TEXCOORD_0": 2
          },
          "indices": 3,
          "material": 0,
          "mode": 4
        }
      ]
    },
    {
      "name": "Object_1",
      "primitives": [
        {
          "attributes": {
            "NORMAL": 5,
            "POSITION": 4,
            "TANGENT": 6,
            "TEXCOORD_0": 7
          },
          "indices": 8,
          "material": 1,
          "mode": 4
        }
      ]
    },
    {
      "name": "Object_2",
      "primitives": [
        {
          "attributes": {
            "NORMAL": 10,
            "POSITION": 9,
            "TANGENT": 11,
            "TEXCOORD_0": 12
          },
          "indices": 13,
          "material": 1,
          "mode": 4
        }
      ]
    },
    {
      "name": "Object_3",
      "primitives": [
        {
          "attributes": {
            "NORMAL": 15,
            "POSITION": 14,
            "TANGENT": 16,
            "TEXCOORD_0": 17
          },
          "indices": 18,
          "material": 1,
          "mode": 4
        }
      ]
    },
    {
      "name": "Object_4",
      "primitives": [
        {
          "attributes": {
            "NORMAL": 20,
            "POSITION": 19,
            "TANGENT": 21,
            "TEXCOORD_0": 22
          },
          "indices": 23,
          "material": 1,
          "mode": 4
        }
      ]
    },
    {
      "name": "Object_5",
      "primitives": [
        {
          "attributes": {
            "NORMAL": 25,
            "POSITION": 24,
            "TANGENT": 26,
            "TEXCOORD_0": 27
          },
          "indices": 28,
          "material": 1,
          "mode": 4
        }
      ]
    }
  ],
  "nodes": [
    {
      "children": [
        1
      ],
      "matrix": [
        1.0,
        0.0,
        0.0,
        0.0,
        0.0,
        2.220446049250313e-16,
        -1.0,
        0.0,
        0.0,
        1.0,
        2.220446049250313e-16,
        0.0,
        0.0,
        0.0,
        0.0,
        1.0
      ],
      "name": "Sketchfab_model"
    },
    {
      "children": [
        2,
        3,
        4,
        5,
        6,
        7
      ],
      "name": "Table_Fountain_Sketchfab.obj.cleaner.materialmerger.gles"
    },
    {
      "mesh": 0,
      "name": "Object_2"
    },
    {
      "mesh": 1,
      "name": "Object_3"
    },
    {
      "mesh": 2,
      "name": "Object_4"
    },
    {
      "mesh": 3,
      "name": "Object_5"
    },
    {
      "mesh": 4,
      "name": "Object_6"
    },
    {
      "mesh": 5,
      "name": "Object_7"
    }
  ],
  "samplers": [
    {
      "magFilter": 9729,
      "minFilter": 9987,
      "wrapS": 10497,
      "wrapT": 10497
    }
  ],
  "scene": 0,
  "scenes": [
    {
      "name": "Sketchfab_Scene",
      "nodes": [
        0
      ]
    }
  ],
  "textures": [
    {
      "sampler": 0,
      "source": 0
    },
    {
      "sampler": 0,
      "source": 1
    },
    {
      "sampler": 0,
      "source": 2
    },
    {
      "sampler": 0,
      "source": 3
    },
    {
      "sampler": 0,
      "source": 4
    },
    {
      "sampler": 0,
      "source": 5
    }
  ]
}
